<svg width="1200" height="900" viewBox="0 0 1200 900" fill="none" xmlns="http://www.w3.org/2000/svg">
  <rect width="1200" height="900" fill="#F0FDFA"/>
  <circle cx="1050" cy="80" r="300" fill="#99F6E4" fill-opacity=".5"/>
  <circle cx="110" cy="815" r="270" fill="#CCFBF1"/>
  <rect x="118" y="103" width="964" height="694" rx="28" fill="white" stroke="#99F6E4" stroke-width="3"/>
  <rect x="118" y="103" width="964" height="102" rx="28" fill="#0F766E"/>
  <circle cx="175" cy="154" r="16" fill="#99F6E4"/>
  <text x="214" y="164" fill="white" font-family="Arial, sans-serif" font-size="37" font-weight="700">anosuim</text>
  <text x="902" y="163" fill="#CCFBF1" font-family="Arial, sans-serif" font-size="22">CLINIC OS</text>
  <rect x="158" y="242" width="225" height="514" rx="14" fill="#F0FDFA"/>
  <text x="192" y="301" fill="#0F766E" font-family="Arial, sans-serif" font-size="20" font-weight="700">OVERVIEW</text>
  <text x="192" y="365" fill="#64748B" font-family="Arial, sans-serif" font-size="19">Patients</text>
  <text x="192" y="421" fill="#64748B" font-family="Arial, sans-serif" font-size="19">Appointments</text>
  <text x="192" y="477" fill="#64748B" font-family="Arial, sans-serif" font-size="19">Billing</text>
  <text x="192" y="533" fill="#64748B" font-family="Arial, sans-serif" font-size="19">AI Assistant</text>
  <text x="427" y="292" fill="#0F172A" font-family="Arial, sans-serif" font-size="37" font-weight="700">Good morning, Care Team</text>
  <text x="427" y="334" fill="#64748B" font-family="Arial, sans-serif" font-size="20">Everything your clinic needs, in one place.</text>
  <rect x="427" y="383" width="288" height="156" rx="18" fill="#CCFBF1"/>
  <text x="455" y="431" fill="#0F766E" font-family="Arial, sans-serif" font-size="19" font-weight="700">TODAY'S APPOINTMENTS</text>
  <text x="455" y="497" fill="#115E59" font-family="Arial, sans-serif" font-size="53" font-weight="700">24</text>
  <rect x="747" y="383" width="288" height="156" rx="18" fill="#ECFDF5"/>
  <text x="775" y="431" fill="#047857" font-family="Arial, sans-serif" font-size="19" font-weight="700">PATIENTS CHECKED IN</text>
  <text x="775" y="497" fill="#065F46" font-family="Arial, sans-serif" font-size="53" font-weight="700">18</text>
  <rect x="427" y="574" width="608" height="145" rx="18" fill="#F8FAFC" stroke="#E2E8F0" stroke-width="2"/>
  <text x="455" y="620" fill="#0F172A" font-family="Arial, sans-serif" font-size="22" font-weight="700">AI appointment assistant</text>
  <text x="455" y="661" fill="#64748B" font-family="Arial, sans-serif" font-size="19">4 new requests captured and ready to schedule.</text>
  <circle cx="982" cy="644" r="28" fill="#0F766E"/>
  <path d="M970 644H994M982 632V656" stroke="white" stroke-width="3" stroke-linecap="round"/>
</svg>
